<svg width="64" height="64" viewBox="0 0 64 64" fill="none" xmlns="http://www.w3.org/2000/svg">
  <defs>
    <linearGradient id="bg" x1="0" y1="0" x2="0" y2="64" gradientUnits="userSpaceOnUse">
      <stop offset="0" stop-color="#D42B2F"/>
      <stop offset="1" stop-color="#9C1417"/>
    </linearGradient>
  </defs>
  <circle cx="32" cy="32" r="28" fill="url(#bg)" stroke="#D7A11F" stroke-width="3"/>
  <path d="M14 22 L24 8 L30 24 Z" fill="#FBE5C7" stroke="#D7A11F" stroke-width="2"/>
  <path d="M50 22 L40 8 L34 24 Z" fill="#FBE5C7" stroke="#D7A11F" stroke-width="2"/>
  <ellipse cx="32" cy="38" rx="18" ry="14" fill="#FBE5C7" stroke="#D7A11F" stroke-width="2"/>
  <path d="M26 30 Q32 24 38 30" stroke="#D7A11F" stroke-width="2" stroke-linecap="round"/>
  <circle cx="26" cy="38" r="2" fill="#2C1B14"/>
  <circle cx="38" cy="38" r="2" fill="#2C1B14"/>
  <path d="M32 40 C30 44 30 46 32 48 C34 46 34 44 32 40 Z" fill="#B0181F"/>
  <path d="M32 47 Q29 49 27 47" stroke="#2C1B14" stroke-width="1.5" stroke-linecap="round"/>
  <path d="M32 47 Q35 49 37 47" stroke="#2C1B14" stroke-width="1.5" stroke-linecap="round"/>
  <circle cx="32" cy="20" r="4" fill="#D7A11F" stroke="#9C6B00" stroke-width="1.5"/>
</svg>
