<svg width="64" height="64" viewBox="0 0 64 64" fill="none" xmlns="http://www.w3.org/2000/svg">
  <defs>
    <linearGradient id="bg" x1="0" y1="0" x2="64" y2="64" gradientUnits="userSpaceOnUse">
      <stop offset="0" stop-color="#FF4FD8"/>
      <stop offset="0.55" stop-color="#7C2BE3"/>
      <stop offset="1" stop-color="#1ED6C1"/>
    </linearGradient>
  </defs>
  <circle cx="32" cy="32" r="28" fill="url(#bg)"/>
  <circle cx="32" cy="32" r="26" stroke="#FF9BF1" stroke-width="2"/>
  <path d="M14 22 L24 8 L30 26 Z" fill="#F7D5B0" stroke="#5C3A22" stroke-width="2"/>
  <path d="M50 22 L40 8 L34 26 Z" fill="#F7D5B0" stroke="#5C3A22" stroke-width="2"/>
  <ellipse cx="32" cy="38" rx="18" ry="14" fill="#F7D5B0" stroke="#5C3A22" stroke-width="2"/>
  <path d="M26 28 Q32 22 38 28" stroke="#7A4B2A" stroke-width="2" stroke-linecap="round"/>
  <path d="M24 32 Q32 26 40 32" stroke="#7A4B2A" stroke-width="2" stroke-linecap="round"/>
  <circle cx="26" cy="38" r="2" fill="#2C1B14"/>
  <circle cx="38" cy="38" r="2" fill="#2C1B14"/>
  <path d="M32 40 C30 44 30 46 32 48 C34 46 34 44 32 40 Z" fill="#FF4FD8"/>
  <path d="M32 47 Q29 49 27 47" stroke="#2C1B14" stroke-width="1.5" stroke-linecap="round"/>
  <path d="M32 47 Q35 49 37 47" stroke="#2C1B14" stroke-width="1.5" stroke-linecap="round"/>
</svg>
