<svg width="160" height="160" viewBox="0 0 160 160" fill="none" xmlns="http://www.w3.org/2000/svg">
  <defs>
    <linearGradient id="bg" x1="0" y1="0" x2="0" y2="160" gradientUnits="userSpaceOnUse">
      <stop offset="0" stop-color="#D42B2F"/>
      <stop offset="1" stop-color="#9C1417"/>
    </linearGradient>
  </defs>
  <circle cx="80" cy="80" r="72" fill="url(#bg)" stroke="#D7A11F" stroke-width="6"/>
  <circle cx="80" cy="80" r="62" stroke="rgba(251,229,199,0.35)" stroke-width="2"/>

  <path d="M36 54 L58 26 L70 60 Z" fill="#FBE5C7" stroke="#D7A11F" stroke-width="3"/>
  <path d="M124 54 L102 26 L90 60 Z" fill="#FBE5C7" stroke="#D7A11F" stroke-width="3"/>
  <path d="M46 52 L58 34 L64 54 Z" fill="#F4C9A6"/>
  <path d="M114 52 L102 34 L96 54 Z" fill="#F4C9A6"/>

  <ellipse cx="80" cy="98" rx="46" ry="38" fill="#FBE5C7" stroke="#D7A11F" stroke-width="3"/>
  <ellipse cx="80" cy="92" rx="36" ry="26" fill="#FFF3DF" opacity="0.65"/>

  <path d="M70 80 Q80 70 90 80" stroke="#D7A11F" stroke-width="3" stroke-linecap="round"/>
  <path d="M73 86 Q80 78 87 86" stroke="#D7A11F" stroke-width="3" stroke-linecap="round"/>

  <circle cx="64" cy="94" r="4" fill="#2C1B14"/>
  <circle cx="96" cy="94" r="4" fill="#2C1B14"/>
  <circle cx="62.5" cy="92.5" r="1.2" fill="#FFF3DF"/>
  <circle cx="94.5" cy="92.5" r="1.2" fill="#FFF3DF"/>

  <circle cx="58" cy="104" r="6" fill="#F2B6A0" opacity="0.7"/>
  <circle cx="102" cy="104" r="6" fill="#F2B6A0" opacity="0.7"/>

  <path d="M80 98 C76 104 74 110 80 114 C86 110 84 104 80 98 Z" fill="#B0181F"/>
  <path d="M80 112 Q74 116 70 112" stroke="#2C1B14" stroke-width="2" stroke-linecap="round"/>
  <path d="M80 112 Q86 116 90 112" stroke="#2C1B14" stroke-width="2" stroke-linecap="round"/>

  <path d="M52 96 L28 92" stroke="#D7A11F" stroke-width="2" stroke-linecap="round"/>
  <path d="M52 102 L26 102" stroke="#D7A11F" stroke-width="2" stroke-linecap="round"/>
  <path d="M52 108 L28 114" stroke="#D7A11F" stroke-width="2" stroke-linecap="round"/>
  <path d="M108 96 L132 92" stroke="#D7A11F" stroke-width="2" stroke-linecap="round"/>
  <path d="M108 102 L134 102" stroke="#D7A11F" stroke-width="2" stroke-linecap="round"/>
  <path d="M108 108 L132 114" stroke="#D7A11F" stroke-width="2" stroke-linecap="round"/>

  <path d="M50 124 Q80 140 110 124" stroke="#B0181F" stroke-width="6" stroke-linecap="round"/>
  <circle cx="80" cy="130" r="7" fill="#D7A11F" stroke="#9C6B00" stroke-width="2"/>
  <circle cx="78" cy="128" r="1.5" fill="#FFF3DF"/>
  <path d="M80 133 L80 136" stroke="#9C6B00" stroke-width="2" stroke-linecap="round"/>

  <circle cx="80" cy="62" r="9" fill="#D7A11F" stroke="#9C6B00" stroke-width="2"/>
  <circle cx="80" cy="62" r="3" fill="#FFF3DF"/>

  <path d="M26 70 L30 74 L26 78 L22 74 Z" fill="#D7A11F" opacity="0.9"/>
  <path d="M130 70 L134 74 L130 78 L126 74 Z" fill="#D7A11F" opacity="0.9"/>
</svg>
