<svg width="160" height="160" viewBox="0 0 160 160" fill="none" xmlns="http://www.w3.org/2000/svg">
  <defs>
    <linearGradient id="bg" x1="0" y1="0" x2="160" y2="160" gradientUnits="userSpaceOnUse">
      <stop offset="0" stop-color="#FF4FD8"/>
      <stop offset="0.55" stop-color="#7C2BE3"/>
      <stop offset="1" stop-color="#1ED6C1"/>
    </linearGradient>
    <linearGradient id="fur" x1="0" y1="0" x2="0" y2="1">
      <stop offset="0" stop-color="#F7D5B0"/>
      <stop offset="1" stop-color="#EBC59B"/>
    </linearGradient>
  </defs>
  <circle cx="80" cy="80" r="72" fill="url(#bg)"/>
  <circle cx="80" cy="80" r="70" stroke="#FF9BF1" stroke-width="4"/>
  <circle cx="80" cy="80" r="60" stroke="rgba(30,214,193,0.5)" stroke-width="2"/>

  <path d="M34 56 L58 24 L70 62 Z" fill="url(#fur)" stroke="#5C3A22" stroke-width="3"/>
  <path d="M126 56 L102 24 L90 62 Z" fill="url(#fur)" stroke="#5C3A22" stroke-width="3"/>
  <path d="M44 54 L58 36 L64 56 Z" fill="#D8A775"/>
  <path d="M116 54 L102 36 L96 56 Z" fill="#D8A775"/>

  <ellipse cx="80" cy="98" rx="46" ry="38" fill="url(#fur)" stroke="#5C3A22" stroke-width="3"/>
  <ellipse cx="80" cy="92" rx="36" ry="26" fill="#FFF1DE" opacity="0.75"/>

  <path d="M68 74 Q80 62 92 74" stroke="#7A4B2A" stroke-width="3" stroke-linecap="round"/>
  <path d="M64 80 Q80 66 96 80" stroke="#7A4B2A" stroke-width="3" stroke-linecap="round"/>
  <path d="M70 84 Q80 74 90 84" stroke="#7A4B2A" stroke-width="3" stroke-linecap="round"/>

  <path d="M58 96 L36 90" stroke="#7A4B2A" stroke-width="2" stroke-linecap="round"/>
  <path d="M56 102 L34 102" stroke="#7A4B2A" stroke-width="2" stroke-linecap="round"/>
  <path d="M58 108 L36 114" stroke="#7A4B2A" stroke-width="2" stroke-linecap="round"/>
  <path d="M102 96 L124 90" stroke="#7A4B2A" stroke-width="2" stroke-linecap="round"/>
  <path d="M104 102 L126 102" stroke="#7A4B2A" stroke-width="2" stroke-linecap="round"/>
  <path d="M102 108 L124 114" stroke="#7A4B2A" stroke-width="2" stroke-linecap="round"/>

  <circle cx="64" cy="94" r="4" fill="#2C1B14"/>
  <circle cx="96" cy="94" r="4" fill="#2C1B14"/>
  <circle cx="62.5" cy="92.5" r="1.4" fill="#FFF1DE"/>
  <circle cx="94.5" cy="92.5" r="1.4" fill="#FFF1DE"/>

  <circle cx="58" cy="104" r="6" fill="#F0B1B4" opacity="0.7"/>
  <circle cx="102" cy="104" r="6" fill="#F0B1B4" opacity="0.7"/>

  <path d="M80 98 C76 104 74 110 80 114 C86 110 84 104 80 98 Z" fill="#FF4FD8"/>
  <path d="M80 112 Q74 116 70 112" stroke="#2C1B14" stroke-width="2" stroke-linecap="round"/>
  <path d="M80 112 Q86 116 90 112" stroke="#2C1B14" stroke-width="2" stroke-linecap="round"/>

  <path d="M50 122 Q80 140 110 122" stroke="#1ED6C1" stroke-width="6" stroke-linecap="round"/>
  <circle cx="80" cy="130" r="7" fill="#FFD74D" stroke="#8C5A00" stroke-width="2"/>
  <circle cx="78" cy="128" r="1.5" fill="#FFF1DE"/>

  <path d="M26 70 L30 74 L26 78 L22 74 Z" fill="#FF9BF1"/>
  <path d="M130 70 L134 74 L130 78 L126 74 Z" fill="#1ED6C1"/>
  <path d="M18 100 L22 104 L18 108 L14 104 Z" fill="#FFD74D"/>
</svg>
